<svg xmlns="http://www.w3.org/2000/svg" width="512" height="512" style="" viewBox="0 0 512 512"><defs transform="matrix(1, 0, 0, 1, 0, 0)"/><path d="M465.5,413.4H36c-19.8,0-36-16.2-36-36V139.8c0-19.8,16.2-36,36-36h429.5c19.8,0,36,16.2,36,36v237.7&#10;&#9;C501.5,397.2,485.3,413.4,465.5,413.4z" transform="matrix(0.4960879683494568, 0, 0, 0.15703244507312775, 124.43443298339844, 166.56259155273438)" fill="#7578bf"/><path text="NEW" fill="#7578bf" space="preserve" text-anchor="middle" offset="0.5" font-scale="contain" font-size="48" font-family="Fredoka One" transform="matrix(1, 0, 0, 1, 179.08242797851562, 174.72891235351562)" font-weight="400" font-style="normal" d="M-31.918-33.72Q-31.467999999999996-34.56 -30.548-34.85Q-29.637999999999998-35.14 -28.267999999999997-35.14Q-26.907999999999998-35.14 -26.067999999999998-34.9Q-25.227999999999998-34.66 -24.817999999999998-34.32Q-24.408-33.98 -24.217999999999996-33.31L-24.217999999999996-33.31Q-23.927999999999997-32.54 -23.927999999999997-30.86L-23.927999999999997-30.86L-23.927999999999997-4.22Q-23.927999999999997-3.07 -23.997999999999998-2.54Q-24.067999999999998-2.02 -24.458-1.3L-24.458-1.3Q-25.127999999999997 0 -28.197999999999997 0L-28.197999999999997 0Q-30.067999999999998 0 -30.787999999999997-0.29Q-31.508-0.58 -31.988-1.2L-31.988-1.2Q-42.788-15.6 -46.198-20.02L-46.198-20.02L-46.198-4.22Q-46.198-3.07 -46.268-2.54Q-46.348-2.02 -46.727999999999994-1.3L-46.727999999999994-1.3Q-47.397999999999996 0 -50.467999999999996 0L-50.467999999999996 0Q-53.448 0 -54.117999999999995-1.3L-54.117999999999995-1.3Q-54.507999999999996-2.02 -54.577999999999996-2.59Q-54.647999999999996-3.17 -54.647999999999996-4.27L-54.647999999999996-4.27L-54.647999999999996-31.06Q-54.647999999999996-32.88 -54.187999999999995-33.72Q-53.738-34.56 -52.827999999999996-34.85Q-51.908-35.14 -50.467999999999996-35.14Q-49.028-35.14 -48.187999999999995-34.87Q-47.348-34.61 -47.018-34.27L-47.018-34.27Q-46.827999999999996-34.13 -45.908-33.02L-45.908-33.02Q-35.788-19.25 -32.378-14.83L-32.378-14.83L-32.378-31.06Q-32.378-32.88 -31.918-33.72ZM-11.587999999999996-13.34L-11.587999999999996-8.5L 3.1920000000000037-8.5Q 4.292000000000005-8.5  4.852000000000004-8.42Q 5.402000000000005-8.35  6.122000000000003-7.97L 6.122000000000003-7.97Q 7.412000000000006-7.3  7.412000000000006-4.22L 7.412000000000006-4.22Q 7.412000000000006-0.86  5.642000000000003-0.29L 5.642000000000003-0.29Q 4.822000000000003 0  3.142000000000003 0L 3.142000000000003 0L-15.867999999999995 0Q-19.227999999999994 0 -19.797999999999995-1.82L-19.797999999999995-1.82Q-20.087999999999994-2.59 -20.087999999999994-4.27L-20.087999999999994-4.27L-20.087999999999994-30.96Q-20.087999999999994-33.41 -19.177999999999997-34.3Q-18.267999999999994-35.18 -15.717999999999996-35.18L-15.717999999999996-35.18L 3.1920000000000037-35.18Q 4.292000000000005-35.18  4.852000000000004-35.11Q 5.402000000000005-35.04  6.122000000000003-34.66L 6.122000000000003-34.66Q 7.412000000000006-33.98  7.412000000000006-30.91L 7.412000000000006-30.91Q 7.412000000000006-27.55  5.642000000000003-26.98L 5.642000000000003-26.98Q 4.822000000000003-26.69  3.142000000000003-26.69L 3.142000000000003-26.69L-11.587999999999996-26.69L-11.587999999999996-21.84L-2.087999999999994-21.84Q-0.987999999999996-21.84 -0.42799999999999727-21.77Q 0.12200000000000344-21.7  0.8420000000000059-21.31L 0.8420000000000059-21.31Q 2.132000000000005-20.64  2.132000000000005-17.57L 2.132000000000005-17.57Q 2.132000000000005-14.21  0.3120000000000047-13.63L 0.3120000000000047-13.63Q-0.5079999999999956-13.34 -2.1879999999999953-13.34L-2.1879999999999953-13.34L-11.587999999999996-13.34ZM 52.63600000000001-34.99L 52.63600000000001-34.99Q 55.846000000000004-33.84  55.846000000000004-31.92L 55.846000000000004-31.92Q 55.846000000000004-31.3  55.276-29.57L 55.276-29.57L 46.056000000000004-2.93Q 45.95600000000001-2.59  45.71600000000001-2.11Q 45.476000000000006-1.63  44.446000000000005-0.84Q 43.416000000000004-0.05  41.99600000000001-0.05Q 40.586000000000006-0.05  39.55600000000001-0.84Q 38.516000000000005-1.63  38.18600000000001-2.4L 38.18600000000001-2.4L 32.566-18.96Q 27.236000000000008-3.22  27.146000000000008-2.93Q 27.046000000000006-2.64  26.716000000000008-2.11Q 26.37600000000001-1.58  25.946000000000005-1.15L 25.946000000000005-1.15Q 24.836000000000006-0.05  23.306000000000004-0.05Q 21.766000000000005-0.05  20.78600000000001-0.77Q 19.796000000000006-1.49  19.466000000000008-2.21L 19.466000000000008-2.21L 19.126000000000005-2.93L 9.866000000000007-29.57Q 9.336000000000007-31.15  9.336000000000007-31.92L 9.336000000000007-31.92Q 9.336000000000007-33.84  12.556000000000006-34.94L 12.556000000000006-34.94Q 13.946000000000007-35.42  15.076000000000008-35.42Q 16.196000000000005-35.42  16.796000000000006-34.66Q 17.396000000000008-33.89  17.876000000000005-32.3L 17.876000000000005-32.3L 23.156000000000006-16.27L 28.396000000000008-32.06Q 29.066000000000006-34.08  30.836000000000006-34.85L 30.836000000000006-34.85Q 31.606000000000005-35.18  32.836000000000006-35.18Q 34.05600000000001-35.18  35.11600000000001-34.39Q 36.16600000000001-33.6  36.456-32.83L 36.456-32.83L 41.976000000000006-16.18L 47.25600000000001-32.3Q 47.63600000000001-33.41  47.876000000000005-33.94Q 48.11600000000001-34.46  48.766000000000005-34.97Q 49.416000000000004-35.47  50.376000000000005-35.47Q 51.336000000000006-35.47  52.63600000000001-34.99Z"/><path text="FIELD" fill="#d97179" space="preserve" text-anchor="middle" offset="0.5" font-scale="contain" font-size="48" font-family="Fredoka One" transform="matrix(1, 0, 0, 1, 306.67254638671875, 174.72891235351562)" font-weight="400" font-style="normal" d="M-61.46200000000001-35.18L-42.55200000000001-35.18Q-41.45200000000001-35.18 -40.89200000000001-35.11Q-40.34200000000001-35.04 -39.65200000000001-34.66Q-38.95200000000001-34.27 -38.662000000000006-33.36Q-38.372000000000014-32.45 -38.372000000000014-30.91Q-38.372000000000014-29.38 -38.662000000000006-28.46Q-38.95200000000001-27.55 -39.67200000000001-27.19Q-40.39200000000001-26.83 -40.94200000000001-26.76Q-41.492000000000004-26.69 -42.65200000000001-26.69L-42.65200000000001-26.69L-57.33200000000001-26.69L-57.33200000000001-21.84L-47.882000000000005-21.84Q-46.73200000000001-21.84 -46.17200000000001-21.77Q-45.622000000000014-21.7 -44.90200000000001-21.31L-44.90200000000001-21.31Q-43.65200000000001-20.59 -43.65200000000001-17.52L-43.65200000000001-17.52Q-43.65200000000001-14.16 -45.48200000000001-13.54L-45.48200000000001-13.54Q-46.25200000000001-13.3 -47.93200000000001-13.3L-47.93200000000001-13.3L-57.33200000000001-13.3L-57.33200000000001-4.22Q-57.33200000000001-3.07 -57.412000000000006-2.54Q-57.48200000000001-2.02 -57.86200000000001-1.3L-57.86200000000001-1.3Q-58.53200000000001 0 -61.61200000000001 0L-61.61200000000001 0Q-64.97200000000001 0 -65.54200000000002-1.82L-65.54200000000002-1.82Q-65.83200000000001-2.59 -65.83200000000001-4.27L-65.83200000000001-4.27L-65.83200000000001-30.96Q-65.83200000000001-33.41 -64.92200000000001-34.3Q-64.01200000000001-35.18 -61.46200000000001-35.18L-61.46200000000001-35.18ZM-35.25600000000001-4.27L-35.25600000000001-30.96Q-35.25600000000001-32.06 -35.18600000000001-32.62Q-35.11600000000001-33.17 -34.726000000000006-33.89L-34.726000000000006-33.89Q-34.05600000000001-35.18 -30.986000000000008-35.18L-30.986000000000008-35.18Q-27.62600000000001-35.18 -26.99600000000001-33.41L-26.99600000000001-33.41Q-26.756000000000007-32.59 -26.756000000000007-30.91L-26.756000000000007-30.91L-26.756000000000007-4.22Q-26.756000000000007-3.07 -26.83600000000001-2.54Q-26.90600000000001-2.02 -27.28600000000001-1.3L-27.28600000000001-1.3Q-27.95600000000001 0 -31.03600000000001 0L-31.03600000000001 0Q-34.39600000000001 0 -34.96600000000001-1.82L-34.96600000000001-1.82Q-35.25600000000001-2.59 -35.25600000000001-4.27L-35.25600000000001-4.27ZM-14.42000000000001-13.34L-14.42000000000001-8.5L 0.3599999999999888-8.5Q 1.4599999999999902-8.5  2.019999999999989-8.42Q 2.5699999999999896-8.35  3.2899999999999885-7.97L 3.2899999999999885-7.97Q 4.579999999999991-7.3  4.579999999999991-4.22L 4.579999999999991-4.22Q 4.579999999999991-0.86  2.809999999999988-0.29L 2.809999999999988-0.29Q 1.9899999999999878 0  0.30999999999998806 0L 0.30999999999998806 0L-18.70000000000001 0Q-22.06000000000001 0 -22.63000000000001-1.82L-22.63000000000001-1.82Q-22.92000000000001-2.59 -22.92000000000001-4.27L-22.92000000000001-4.27L-22.92000000000001-30.96Q-22.92000000000001-33.41 -22.010000000000012-34.3Q-21.10000000000001-35.18 -18.55000000000001-35.18L-18.55000000000001-35.18L 0.3599999999999888-35.18Q 1.4599999999999902-35.18  2.019999999999989-35.11Q 2.5699999999999896-35.04  3.2899999999999885-34.66L 3.2899999999999885-34.66Q 4.579999999999991-33.98  4.579999999999991-30.91L 4.579999999999991-30.91Q 4.579999999999991-27.55  2.809999999999988-26.98L 2.809999999999988-26.98Q 1.9899999999999878-26.69  0.30999999999998806-26.69L 0.30999999999998806-26.69L-14.42000000000001-26.69L-14.42000000000001-21.84L-4.920000000000009-21.84Q-3.820000000000011-21.84 -3.260000000000012-21.77Q-2.7100000000000115-21.7 -1.990000000000009-21.31L-1.990000000000009-21.31Q-0.70000000000001-20.64 -0.70000000000001-17.57L-0.70000000000001-17.57Q-0.70000000000001-14.21 -2.5200000000000102-13.63L-2.5200000000000102-13.63Q-3.3400000000000105-13.34 -5.02000000000001-13.34L-5.02000000000001-13.34L-14.42000000000001-13.34ZM 16.203999999999994-30.91L 16.203999999999994-7.1L 29.25399999999999-7.1Q 30.84399999999999-7.1  31.563999999999993-6.74Q 32.28399999999999-6.38  32.52399999999999-5.62Q 32.763999999999996-4.85  32.763999999999996-3.58Q 32.763999999999996-2.3  32.52399999999999-1.54Q 32.28399999999999-0.77  31.703999999999994-0.48L 31.703999999999994-0.48Q 30.793999999999993 0  29.203999999999994 0L 29.203999999999994 0L 11.923999999999992 0Q 8.563999999999991 0  7.993999999999992-1.82L 7.993999999999992-1.82Q 7.703999999999992-2.59  7.703999999999992-4.27L 7.703999999999992-4.27L 7.703999999999992-30.96Q 7.703999999999992-32.06  7.773999999999992-32.62Q 7.843999999999992-33.17  8.233999999999991-33.89L 8.233999999999991-33.89Q 8.903999999999993-35.18  11.973999999999993-35.18L 11.973999999999993-35.18Q 15.333999999999993-35.18  15.963999999999992-33.41L 15.963999999999992-33.41Q 16.203999999999994-32.59  16.203999999999994-30.91L 16.203999999999994-30.91ZM 40.14999999999999-35.23L 40.14999999999999-35.23L 49.029999999999994-35.18Q 55.989999999999995-35.18  61.269999999999996-30.17Q 66.55-25.15  66.55-17.83Q 66.55-10.51  61.38999999999999-5.28Q 56.22999999999999-0.05  48.88999999999999-0.05L 48.88999999999999-0.05L 40.099999999999994-0.05Q 37.17999999999999-0.05  36.459999999999994-1.25L 36.459999999999994-1.25Q 35.879999999999995-2.26  35.879999999999995-4.32L 35.879999999999995-4.32L 35.879999999999995-31.01Q 35.879999999999995-32.16  35.949999999999996-32.69Q 36.019999999999996-33.22  36.41-33.94L 36.41-33.94Q 37.07999999999999-35.23  40.14999999999999-35.23ZM 49.029999999999994-8.54Q 52.489999999999995-8.54  55.269999999999996-11.11Q 58.059999999999995-13.68  58.059999999999995-17.57Q 58.059999999999995-21.46  55.33999999999999-24.07Q 52.629999999999995-26.69  48.97999999999999-26.69L 48.97999999999999-26.69L 44.379999999999995-26.69L 44.379999999999995-8.54L 49.029999999999994-8.54Z"/>.st0{fill:#FF9071;}
	.st1{fill:#00FF00;}Fichier 63.st0{fill:#FF9071;}
	.st1{fill:#00FF00;}Fichier 63<path text="FOODMART" fill="#ffffff" space="preserve" text-anchor="middle" offset="0.5" font-scale="contain" font-size="48" font-family="Fredoka One" transform="matrix(0.6997568011283875, 0, 0, 1, 248.40794372558594, 224.69119262695312)" font-weight="400" font-style="normal" stroke="none" letter-spacing="0" d="M-134.06200000000004-35.18L-115.15200000000003-35.18Q-114.05200000000004-35.18 -113.49200000000003-35.11Q-112.94200000000004-35.04 -112.25200000000004-34.66Q-111.55200000000004-34.27 -111.26200000000003-33.36Q-110.97200000000004-32.45 -110.97200000000004-30.91Q-110.97200000000004-29.38 -111.26200000000003-28.46Q-111.55200000000004-27.55 -112.27200000000003-27.19Q-112.99200000000003-26.83 -113.54200000000003-26.76Q-114.09200000000003-26.69 -115.25200000000004-26.69L-115.25200000000004-26.69L-129.93200000000004-26.69L-129.93200000000004-21.84L-120.48200000000003-21.84Q-119.33200000000004-21.84 -118.77200000000003-21.77Q-118.22200000000004-21.7 -117.50200000000004-21.31L-117.50200000000004-21.31Q-116.25200000000004-20.59 -116.25200000000004-17.52L-116.25200000000004-17.52Q-116.25200000000004-14.16 -118.08200000000004-13.54L-118.08200000000004-13.54Q-118.85200000000003-13.3 -120.53200000000004-13.3L-120.53200000000004-13.3L-129.93200000000004-13.3L-129.93200000000004-4.22Q-129.93200000000004-3.07 -130.01200000000003-2.54Q-130.08200000000002-2.02 -130.46200000000005-1.3L-130.46200000000005-1.3Q-131.13200000000003 0 -134.21200000000005 0L-134.21200000000005 0Q-137.57200000000003 0 -138.14200000000002-1.82L-138.14200000000002-1.82Q-138.43200000000004-2.59 -138.43200000000004-4.27L-138.43200000000004-4.27L-138.43200000000004-30.96Q-138.43200000000004-33.41 -137.52200000000002-34.3Q-136.61200000000002-35.18 -134.06200000000004-35.18L-134.06200000000004-35.18ZM-91.34600000000003-35.62L-91.34600000000003-35.62Q-84.23600000000005-35.62 -79.00600000000004-30.48Q-73.77600000000004-25.34 -73.77600000000004-17.74Q-73.77600000000004-10.13 -78.76600000000003-4.78Q-83.75600000000004 0.58 -91.05600000000004 0.58Q-98.35600000000004 0.58 -103.46600000000004-4.7Q-108.57600000000004-9.98 -108.57600000000004-17.28L-108.57600000000004-17.28Q-108.57600000000004-21.26 -107.13600000000004-24.74Q-105.69600000000004-28.22 -103.29600000000003-30.58Q-100.89600000000004-32.93 -97.77600000000004-34.27Q-94.65600000000003-35.62 -91.34600000000003-35.62ZM-100.07600000000004-17.52Q-100.07600000000004-13.25 -97.31600000000003-10.58Q-94.55600000000004-7.92 -91.15600000000003-7.92Q-87.74600000000004-7.92 -85.00600000000004-10.51Q-82.27600000000004-13.1 -82.27600000000004-17.47Q-82.27600000000004-21.84 -85.03600000000004-24.48Q-87.79600000000003-27.12 -91.19600000000004-27.12Q-94.60600000000004-27.12 -97.34600000000003-24.46Q-100.07600000000004-21.79 -100.07600000000004-17.52ZM-54.146000000000036-35.62L-54.146000000000036-35.62Q-47.03600000000004-35.62 -41.80600000000004-30.48Q-36.576000000000036-25.34 -36.576000000000036-17.74Q-36.576000000000036-10.13 -41.56600000000003-4.78Q-46.55600000000004 0.58 -53.85600000000004 0.58Q-61.156000000000034 0.58 -66.26600000000003-4.7Q-71.37600000000003-9.98 -71.37600000000003-17.28L-71.37600000000003-17.28Q-71.37600000000003-21.26 -69.93600000000004-24.74Q-68.49600000000004-28.22 -66.09600000000003-30.58Q-63.69600000000003-32.93 -60.576000000000036-34.27Q-57.45600000000004-35.62 -54.146000000000036-35.62ZM-62.87600000000003-17.52Q-62.87600000000003-13.25 -60.116000000000035-10.58Q-57.35600000000004-7.92 -53.95600000000003-7.92Q-50.546000000000035-7.92 -47.80600000000004-10.51Q-45.076000000000036-13.1 -45.076000000000036-17.47Q-45.076000000000036-21.84 -47.83600000000004-24.48Q-50.59600000000003-27.12 -53.99600000000004-27.12Q-57.406000000000034-27.12 -60.146000000000036-24.46Q-62.87600000000003-21.79 -62.87600000000003-17.52ZM-29.186000000000032-35.23L-29.186000000000032-35.23L-20.306000000000033-35.18Q-13.346000000000032-35.18 -8.066000000000034-30.17Q-2.78600000000003-25.15 -2.78600000000003-17.83Q-2.78600000000003-10.51 -7.9460000000000335-5.28Q-13.106000000000034-0.05 -20.446000000000033-0.05L-20.446000000000033-0.05L-29.236000000000033-0.05Q-32.156000000000034-0.05 -32.87600000000003-1.25L-32.87600000000003-1.25Q-33.45600000000003-2.26 -33.45600000000003-4.32L-33.45600000000003-4.32L-33.45600000000003-31.01Q-33.45600000000003-32.16 -33.38600000000003-32.69Q-33.31600000000003-33.22 -32.92600000000003-33.94L-32.92600000000003-33.94Q-32.256000000000036-35.23 -29.186000000000032-35.23ZM-20.306000000000033-8.54Q-16.846000000000032-8.54 -14.066000000000034-11.11Q-11.276000000000032-13.68 -11.276000000000032-17.57Q-11.276000000000032-21.46 -13.996000000000034-24.07Q-16.70600000000003-26.69 -20.356000000000034-26.69L-20.356000000000034-26.69L-24.95600000000003-26.69L-24.95600000000003-8.54L-20.306000000000033-8.54ZM 37.72599999999997-33.84L 37.72599999999997-33.84Q 38.11599999999997-33.12  38.18599999999997-32.54Q 38.25599999999997-31.97  38.25599999999997-30.86L 38.25599999999997-30.86L 38.25599999999997-4.22Q 38.25599999999997-0.91  36.43599999999997-0.34L 36.43599999999997-0.34Q 35.51599999999997-0.05  34.12599999999997-0.05Q 32.73599999999997-0.05  31.91599999999997-0.29Q 31.105999999999966-0.53  30.675999999999966-0.86Q 30.23599999999997-1.2  29.995999999999967-1.82L 29.995999999999967-1.82Q 29.75599999999997-2.64  29.75599999999997-4.32L 29.75599999999997-4.32L 29.75599999999997-20.4Q 28.55599999999997-18.91  26.25599999999997-15.67Q 23.955999999999968-12.43  23.32599999999997-11.62Q 22.705999999999968-10.8  22.46599999999997-10.49Q 22.225999999999967-10.18  21.28599999999997-9.62Q 20.35599999999997-9.07  19.275999999999968-9.07Q 18.19599999999997-9.07  17.30599999999997-9.58Q 16.41599999999997-10.08  16.03599999999997-10.56L 16.03599999999997-10.56L 15.645999999999969-11.09Q 14.685999999999968-12.29  11.855999999999968-16.2Q 9.025999999999968-20.11  8.785999999999968-20.4L 8.785999999999968-20.4L 8.785999999999968-4.22Q 8.785999999999968-3.12  8.715999999999969-2.57Q 8.635999999999969-2.02  8.255999999999968-1.34L 8.255999999999968-1.34Q 7.535999999999968-0.05  4.515999999999968-0.05L 4.515999999999968-0.05Q 1.5859999999999683-0.05  0.8659999999999686-1.34L 0.8659999999999686-1.34Q 0.47599999999996845-2.02  0.4059999999999684-2.59Q 0.3359999999999683-3.17  0.3359999999999683-4.32L 0.3359999999999683-4.32L 0.3359999999999683-30.96Q 0.3359999999999683-32.06  0.4059999999999684-32.62Q 0.47599999999996845-33.17  0.8659999999999686-33.89L 0.8659999999999686-33.89Q 1.5859999999999683-35.14  4.605999999999969-35.14L 4.605999999999969-35.14Q 5.905999999999969-35.14  6.835999999999968-34.82Q 7.775999999999968-34.51  8.065999999999969-34.18L 8.065999999999969-34.18L 8.355999999999968-33.89L 19.245999999999967-19.58Q 27.405999999999967-30.38  30.14599999999997-33.84L 30.14599999999997-33.84Q 30.955999999999968-35.14  34.00599999999997-35.14Q 37.05599999999997-35.14  37.72599999999997-33.84ZM 62.395999999999965-32.69L 62.395999999999965-32.69L 75.35599999999997-5.9Q 76.17599999999996-4.27  76.17599999999996-3.46L 76.17599999999996-3.46Q 76.17599999999996-1.73  73.39599999999996-0.34L 73.39599999999996-0.34Q 71.75599999999997 0.48  70.82599999999996 0.48Q 69.88599999999997 0.48  69.28599999999997 0.05Q 68.68599999999996-0.38  68.42599999999996-0.86Q 68.15599999999996-1.34  67.67599999999996-2.3L 67.67599999999996-2.3L 65.18599999999996-7.49L 51.88599999999997-7.49L 49.395999999999965-2.3Q 48.91599999999997-1.34  48.645999999999965-0.91Q 48.38599999999997-0.48  47.785999999999966-0.02Q 47.185999999999964 0.43  46.24599999999997 0.43Q 45.31599999999997 0.43  43.675999999999966-0.38L 43.675999999999966-0.38Q 40.895999999999965-1.73  40.895999999999965-3.46L 40.895999999999965-3.46Q 40.895999999999965-4.27  41.715999999999966-5.9L 41.715999999999966-5.9L 54.675999999999966-32.74Q 55.19599999999997-33.84  56.27599999999997-34.51Q 57.355999999999966-35.18  58.55599999999997-35.18L 58.55599999999997-35.18Q 61.15599999999996-35.18  62.395999999999965-32.69ZM 61.72599999999997-14.59L 58.51599999999996-21.17L 55.34599999999997-14.59L 61.72599999999997-14.59ZM 105.74599999999995-5.95L 105.74599999999995-5.95Q 106.46599999999995-4.22  106.46599999999995-3.46L 106.46599999999995-3.46Q 106.46599999999995-1.63  103.48599999999996-0.38L 103.48599999999996-0.38Q 101.95599999999996 0.29  101.01599999999996 0.29Q 100.07599999999996 0.29  99.47599999999996-0.17Q 98.87599999999996-0.62  98.59599999999996-1.1L 98.59599999999996-1.1Q 98.11599999999996-2.02  94.84599999999996-9.79L 94.84599999999996-9.79L 93.35599999999997-9.7L 87.31599999999996-9.7L 87.31599999999996-4.27Q 87.31599999999996-3.17  87.23599999999996-2.62Q 87.16599999999995-2.06  86.78599999999996-1.34L 86.78599999999996-1.34Q 86.11599999999996-0.05  83.03599999999996-0.05L 83.03599999999996-0.05Q 79.67599999999996-0.05  79.10599999999995-1.82L 79.10599999999995-1.82Q 78.81599999999996-2.64  78.81599999999996-4.32L 78.81599999999996-4.32L 78.81599999999996-30.96Q 78.81599999999996-32.06  78.88599999999995-32.62Q 78.95599999999996-33.17  79.34599999999996-33.89L 79.34599999999996-33.89Q 80.01599999999996-35.18  83.08599999999996-35.18L 83.08599999999996-35.18L 93.45599999999996-35.18Q 97.67599999999996-35.18  101.66599999999995-32.11L 101.66599999999995-32.11Q 103.58599999999996-30.62  104.83599999999996-28.08Q 106.07599999999996-25.54  106.07599999999996-22.42L 106.07599999999996-22.42Q 106.07599999999996-16.99  102.47599999999996-13.49L 102.47599999999996-13.49Q 103.53599999999996-10.94  105.74599999999995-5.95ZM 87.31599999999996-26.69L 87.31599999999996-18.19L 93.45599999999996-18.19Q 94.84599999999996-18.19  96.23599999999996-19.25Q 97.63599999999995-20.3  97.63599999999995-22.42Q 97.63599999999995-24.53  96.23599999999996-25.61Q 94.84599999999996-26.69  93.35599999999997-26.69L 93.35599999999997-26.69L 87.31599999999996-26.69ZM 109.48399999999995-35.23L 109.48399999999995-35.23L 136.17399999999995-35.23Q 137.71399999999994-35.23  138.43399999999997-34.87Q 139.15399999999994-34.51  139.39399999999995-33.74Q 139.63399999999996-32.98  139.63399999999996-31.73Q 139.63399999999996-30.48  139.39399999999995-29.74Q 139.15399999999994-28.99  138.57399999999996-28.7L 138.57399999999996-28.7Q 137.71399999999994-28.27  136.12399999999997-28.27L 136.12399999999997-28.27L 126.96399999999996-28.27L 126.96399999999996-4.13Q 126.96399999999996-3.02  126.88399999999996-2.5Q 126.81399999999995-1.97  126.45399999999995-1.27Q 126.09399999999995-0.58  125.18399999999995-0.29Q 124.27399999999996 0  122.78399999999995 0Q 121.29399999999995 0  120.40399999999995-0.29Q 119.52399999999996-0.58  119.16399999999996-1.27Q 118.80399999999995-1.97  118.72399999999996-2.52Q 118.65399999999995-3.07  118.65399999999995-4.18L 118.65399999999995-4.18L 118.65399999999995-28.27L 109.44399999999996-28.27Q 107.90399999999995-28.27  107.18399999999995-28.63Q 106.46399999999996-28.99  106.22399999999995-29.76Q 105.98399999999995-30.53  105.98399999999995-31.78Q 105.98399999999995-33.02  106.22399999999995-33.77Q 106.46399999999996-34.51  107.04399999999995-34.8L 107.04399999999995-34.8Q 107.90399999999995-35.23  109.48399999999995-35.23Z"/></svg>